# xmcd
#
# Track frame offsets:
#	150
#	31247
#	49452
#	67317
#	88390
#	105802
#	125162
#	146225
#	162580
#	179525
#	198135
#
# Disc length: 2880 seconds
#
# Revision: 1
# Processed by: cddbd v1.5.1PL0 Copyright (c) Steve Scherf et al.
# Submitted via: CDex 1.50Beta5
#
DISCID=aa0b3e0b
DTITLE=小林明子 - Song For You〜カーペンターズ・アンソロジー〜,A
DYEAR=2003
DGENRE=
TTITLE0=Medley〜Ticket to ride/We’ve only just begun/Supers
TTITLE1=I need to be in love〜青春の輝き
TTITLE2=Goodbye to love
TTITLE3=Somebody’s been lyin’〜嘘つきさん
TTITLE4=Rainy days and Mondays〜雨の日と月曜日は
TTITLE5=Make believe it’s your first time〜遠い初恋
TTITLE6=Lovelines
TTITLE7=Sing
TTITLE8=Honolulu city lights
TTITLE9=All you get from love is a love song〜二人のラヴ・ソング
TTITLE10=Close to you
EXTD=
EXTT0=
EXTT1=
EXTT2=
EXTT3=
EXTT4=
EXTT5=
EXTT6=
EXTT7=
EXTT8=
EXTT9=
EXTT10=
PLAYORDER=
